<svg xmlns="http://www.w3.org/2000/svg" viewBox="0 0 478.09 371.99"><defs><style>.cls-1{fill:#7c7d7d;opacity:0;}.cls-2{fill:#007c9d;}.cls-3{fill:#fdb913;}</style></defs><g id="Layer_2" data-name="Layer 2"><g id="Layer_1-2" data-name="Layer 1"><rect class="cls-1" width="478.09" height="371.99"/><polygon class="cls-2" points="142.05 337.38 142.05 356.39 133.18 356.39 133.18 314.01 142.05 314.01 142.05 330.09 158.57 330.09 158.57 314.01 167.45 314.01 167.45 356.39 158.57 356.39 158.57 337.38 142.05 337.38 142.05 337.38"/><path class="cls-2" d="M193.21,312.89c5.62,0,20.38,2.42,20.38,22.3s-14.76,22.32-20.38,22.32-20.38-2.42-20.38-22.32,14.78-22.3,20.38-22.3m0,37.1c4.78,0,11.51-2.92,11.51-14.8s-6.73-14.81-11.51-14.81-11.52,3-11.52,14.81,6.73,14.8,11.52,14.8"/><path class="cls-2" d="M227.51,343.35c0,2.36,1.23,6.83,9,6.83,4.19,0,8.87-1,8.87-5.48,0-3.3-3.2-4.2-7.7-5.24l-4.54-1.06c-6.86-1.61-13.46-3.13-13.46-12.46,0-4.72,2.53-13.05,16.28-13.05,13,0,16.5,8.5,16.55,13.69H244c-.23-1.89-.93-6.37-8.67-6.37-3.37,0-7.39,1.25-7.39,5.07,0,3.31,2.73,4,4.48,4.44l10.36,2.54c5.77,1.4,11.09,3.76,11.09,11.37,0,12.75-13,13.88-16.73,13.88-15.45,0-18.12-8.9-18.12-14.16Z"/><path class="cls-2" d="M268.1,356.38h-8.88V314H278.6c8.22,0,13.17,5.26,13.17,13.58,0,3.84-2.1,13.51-13.53,13.51H268.1v15.28Zm8.2-22.6c6.61,0,6.61-4.71,6.61-6.6,0-4.14-2.32-5.84-7.79-5.84h-7v12.44Z"/><polygon class="cls-2" points="306.02 356.38 297.16 356.38 297.16 314.01 306.02 314.01 306.02 356.38 306.02 356.38"/><polygon class="cls-2" points="333.08 356.38 324.21 356.38 324.21 321.51 311.42 321.51 311.42 314.01 345.89 314.01 345.89 321.51 333.08 321.51 333.08 356.38 333.08 356.38"/><path class="cls-2" d="M357.27,356.38h-9.33L363.06,314H373.3l14.93,42.37h-9.65l-2.69-8.74H360.23l-3,8.74Zm5.3-16.05H373.4l-5.25-16.75H368l-5.44,16.75Z"/><polygon class="cls-2" points="402.49 348.72 423.56 348.72 423.56 356.38 393.62 356.38 393.62 314.01 402.49 314.01 402.49 348.72 402.49 348.72"/><path class="cls-2" d="M437.44,343.35c.06,2.36,1.25,6.83,9,6.83,4.22,0,8.88-1,8.88-5.48,0-3.3-3.2-4.2-7.69-5.24l-4.56-1.06c-6.83-1.61-13.46-3.13-13.46-12.46,0-4.72,2.55-13.05,16.3-13.05,13,0,16.49,8.5,16.54,13.69h-8.49c-.26-1.89-1-6.37-8.71-6.37-3.35,0-7.36,1.25-7.36,5.07,0,3.31,2.7,4,4.48,4.44l10.34,2.54c5.8,1.4,11.11,3.76,11.11,11.37,0,12.75-13,13.88-16.71,13.88-15.49,0-18.14-8.9-18.14-14.16Z"/><path class="cls-2" d="M47.25,198.84,12.23,296H32.72L40,274.37H74.6l7,21.65h21.13L68.11,198.84Zm-2,59.61,12.07-35.66h.25l11.68,35.66Zm120.88-23.27a28.75,28.75,0,0,0-9.46-8.3,28.1,28.1,0,0,0-13.64-3.11,25.44,25.44,0,0,0-11.41,2.56,20.62,20.62,0,0,0-8.55,8.3h-.27v-9H105.33V341.87h18.43V287.3H124a21.9,21.9,0,0,0,8.63,7.83,25,25,0,0,0,11.47,2.65,26.73,26.73,0,0,0,12.91-3,27.61,27.61,0,0,0,9.2-8,36.06,36.06,0,0,0,5.51-11.58,50.44,50.44,0,0,0,1.81-13.6,56.09,56.09,0,0,0-1.81-14.37,36.13,36.13,0,0,0-5.57-12m-11.82,34.15a20.75,20.75,0,0,1-2.65,7.16,14.93,14.93,0,0,1-4.91,5,16,16,0,0,1-15.13,0,14.59,14.59,0,0,1-5-5,22.35,22.35,0,0,1-2.74-7.16,41,41,0,0,1-.83-8.29,45,45,0,0,1,.78-8.45,21.88,21.88,0,0,1,2.65-7.2,15.67,15.67,0,0,1,4.93-5.12,13.77,13.77,0,0,1,7.6-2,13.52,13.52,0,0,1,7.45,2,16.22,16.22,0,0,1,5,5.19,23.48,23.48,0,0,1,2.78,7.26,41.42,41.42,0,0,1,.84,8.32,43.22,43.22,0,0,1-.79,8.29m83.14-35.44a31.18,31.18,0,0,0-11-7.49,37.09,37.09,0,0,0-14.32-2.63,36.62,36.62,0,0,0-14.27,2.63,31.59,31.59,0,0,0-10.9,7.49,33.2,33.2,0,0,0-7,11.69,45.52,45.52,0,0,0-2.47,15.33A44.82,44.82,0,0,0,180,276.15a33.34,33.34,0,0,0,7,11.64,30.62,30.62,0,0,0,10.9,7.42,37.56,37.56,0,0,0,14.27,2.57,38,38,0,0,0,14.32-2.57,30.24,30.24,0,0,0,11-7.42,33.34,33.34,0,0,0,7-11.64A44.57,44.57,0,0,0,247,260.91a45.27,45.27,0,0,0-2.47-15.33,33.2,33.2,0,0,0-7-11.69m-9.72,35.25a22.49,22.49,0,0,1-2.66,7.21,14.32,14.32,0,0,1-5.07,5.1,14.94,14.94,0,0,1-7.83,1.9,14.73,14.73,0,0,1-7.8-1.9,14.4,14.4,0,0,1-5-5.1,22.51,22.51,0,0,1-2.67-7.21,43.23,43.23,0,0,1-.77-8.23,44.33,44.33,0,0,1,.77-8.32,21.68,21.68,0,0,1,2.67-7.2,15.42,15.42,0,0,1,5-5.12,14.38,14.38,0,0,1,7.8-2,14.58,14.58,0,0,1,7.83,2,15.32,15.32,0,0,1,5.07,5.12,21.67,21.67,0,0,1,2.66,7.2,44.34,44.34,0,0,1,.78,8.32,43.24,43.24,0,0,1-.78,8.23M252.26,296h18.42V198.84H252.26V296Zm30.22,0H300.9V198.84H282.48V296Zm90.67-50.44a33.1,33.1,0,0,0-7-11.69,31.1,31.1,0,0,0-10.94-7.49,37.25,37.25,0,0,0-14.33-2.63,36.82,36.82,0,0,0-14.28,2.63,31.45,31.45,0,0,0-10.89,7.49,33.37,33.37,0,0,0-7,11.69,45,45,0,0,0-2.45,15.33,44.34,44.34,0,0,0,2.45,15.24,33.51,33.51,0,0,0,7,11.64,30.49,30.49,0,0,0,10.89,7.42,37.76,37.76,0,0,0,14.28,2.57,38.21,38.21,0,0,0,14.33-2.57,30.17,30.17,0,0,0,10.94-7.42,33.24,33.24,0,0,0,7-11.64,44.58,44.58,0,0,0,2.46-15.24,45.27,45.27,0,0,0-2.46-15.33M356.4,269.14a22.25,22.25,0,0,1-2.65,7.21,14.35,14.35,0,0,1-5.05,5.1,15,15,0,0,1-7.84,1.9,14.73,14.73,0,0,1-7.8-1.9,14.51,14.51,0,0,1-5-5.1,22.48,22.48,0,0,1-2.65-7.21,43.23,43.23,0,0,1-.77-8.23,44.33,44.33,0,0,1,.77-8.32,21.66,21.66,0,0,1,2.65-7.2,15.55,15.55,0,0,1,5-5.12,14.38,14.38,0,0,1,7.8-2,14.64,14.64,0,0,1,7.84,2,15.35,15.35,0,0,1,5.05,5.12,21.44,21.44,0,0,1,2.65,7.2,43.53,43.53,0,0,1,.8,8.32,42.45,42.45,0,0,1-.8,8.23"/><path class="cls-2" d="M176.28,210.05,187.2,219l10.92-8.91V183.17H176.28v26.88Zm22.94-56.2H173.09v-6.53l-59.67,70.54H145l31.1-37.66h23.11v-3.61h0V155.77h0v-1.92Zm-22.95-3h21.85v-22.6l11.53-18.73H163.37l12.9,18.73v22.6Zm-66.87-79H49v110.4H77.47l65.59-75.48L109.4,71.86ZM87.77,110.17h-9.4V120H70.11v-9.85H60.72v-8.65h9.39V91.67h8.26v9.85h9.4v8.65Zm46.48,67.09,4.6-16.93H145V113.16L81.2,186.58v32.36l31.86-36.68h14.75a6.07,6.07,0,0,0,6.44-5m3.53-40-4.7,4.94-4.69-4.94Z"/><path class="cls-3" d="M160.1,44a5.78,5.78,0,0,1-.7-.24c-36.9-10-39.15-28.3-38.16-34.87-2.6,7.52-2.39,22.33.35,31.2C126,44.73,140.71,51.51,154.9,53c1.54.2,3,.52,4.5.8,37.17,7.35,40.29,39.17,26.78,54.57,1.46-3,17.07-36-21.19-42.8-1.9-.3-3.65-.66-5.26-1-27.08-5.24-29.52-9.5-30.86-10-1.06,4.87,5.63,31.21,30.86,34.52h.2c23.68,3,26,15.32,26.13,19.32l0,0,0,0v.09l.06-.12c6.83-5.12,11.15-14.36,11.57-24.34V81.34C197.06,65.67,186.52,49,160.1,44"/></g></g></svg>